<svg width="50" height="50" viewBox="0 0 50 50" fill="none" xmlns="http://www.w3.org/2000/svg">
<path d="M9.375 13.2812C9.375 11.002 10.2804 8.81619 11.8921 7.20455C13.5037 5.59291 15.6895 4.6875 17.9687 4.6875C20.248 4.6875 22.4338 5.59291 24.0454 7.20455C25.6571 8.81619 26.5625 11.002 26.5625 13.2812C26.5625 15.5605 25.6571 17.7463 24.0454 19.3579C22.4338 20.9696 20.248 21.875 17.9687 21.875C15.6895 21.875 13.5037 20.9696 11.8921 19.3579C10.2804 17.7463 9.375 15.5605 9.375 13.2812ZM29.6875 17.9687C29.6875 17.0454 29.8694 16.1311 30.2227 15.278C30.5761 14.4249 31.094 13.6498 31.7469 12.9969C32.3998 12.344 33.1749 11.8261 34.028 11.4727C34.8811 11.1194 35.7954 10.9375 36.7188 10.9375C37.6421 10.9375 38.5564 11.1194 39.4095 11.4727C40.2626 11.8261 41.0377 12.344 41.6906 12.9969C42.3435 13.6498 42.8614 14.4249 43.2148 15.278C43.5681 16.1311 43.75 17.0454 43.75 17.9687C43.75 19.8336 43.0092 21.622 41.6906 22.9406C40.372 24.2592 38.5836 25 36.7188 25C34.8539 25 33.0655 24.2592 31.7469 22.9406C30.4283 21.622 29.6875 19.8336 29.6875 17.9687ZM3.125 39.8438C3.125 35.9069 4.68889 32.1314 7.47263 29.3476C10.2564 26.5639 14.0319 25 17.9687 25C21.9056 25 25.6811 26.5639 28.4649 29.3476C31.2486 32.1314 32.8125 35.9069 32.8125 39.8438V39.85L32.8104 40.0979C32.806 40.3629 32.7343 40.6223 32.602 40.8519C32.4697 41.0815 32.2812 41.2737 32.0542 41.4104C27.8025 43.9708 22.9318 45.3201 17.9687 45.3125C12.8187 45.3125 7.99792 43.8875 3.88542 41.4104C3.65802 41.274 3.4691 41.0819 3.33643 40.8523C3.20376 40.6227 3.13172 40.3631 3.12708 40.0979L3.125 39.8438ZM35.9375 39.85L35.9354 40.15C35.9238 40.8444 35.758 41.5275 35.45 42.15C39.0869 42.3743 42.7196 41.6492 45.9917 40.0458C46.2447 39.9221 46.4596 39.7323 46.6136 39.4965C46.7677 39.2607 46.8551 38.9877 46.8667 38.7062C46.9402 36.9588 46.5612 35.222 45.7665 33.6641C44.9717 32.1061 43.7881 30.7798 42.3303 29.8135C40.8725 28.8473 39.1898 28.2739 37.4453 28.1489C35.7008 28.0239 33.9536 28.3515 32.3729 29.1C34.6921 32.2012 35.9422 35.9713 35.9354 39.8438L35.9375 39.85Z" fill="white"/>
</svg>
