<svg width="50" height="50" viewBox="0 0 50 50" fill="none" xmlns="http://www.w3.org/2000/svg">
<path d="M25 50C28.4492 50 31.2471 47.2021 31.2471 43.75H18.7529C18.7529 47.2021 21.5508 50 25 50ZM46.0342 35.3799C44.1475 33.3525 40.6172 30.3027 40.6172 20.3125C40.6172 12.7246 35.2969 6.65039 28.1231 5.16016V3.125C28.1231 1.39941 26.7246 0 25 0C23.2754 0 21.877 1.39941 21.877 3.125V5.16016C14.7031 6.65039 9.38282 12.7246 9.38282 20.3125C9.38282 30.3027 5.85255 33.3525 3.96583 35.3799C3.37989 36.0098 3.12012 36.7627 3.12501 37.5C3.13575 39.1016 4.39259 40.625 6.25977 40.625H43.7403C45.6075 40.625 46.8653 39.1016 46.875 37.5C46.8799 36.7627 46.6202 36.0088 46.0342 35.3799Z" fill="white"/>
</svg>
