<svg width="36" height="26" viewBox="0 0 36 26" fill="none" xmlns="http://www.w3.org/2000/svg">
<path d="M34.4702 21.0226L10.5391 21.0226C10.2077 21.0226 9.93939 20.6234 9.93939 20.1301C9.93939 19.6368 10.2077 19.2375 10.5391 19.2375L34.4698 19.2375C34.8008 19.2375 35.0695 19.6368 35.0695 20.1301C35.0695 20.6234 34.8012 21.0226 34.4702 21.0226Z" fill="white"/>
<path d="M7.52732 25.5001C5.53623 25.5001 3.91577 23.0907 3.91577 20.1289C3.91577 17.167 5.53583 14.7576 7.52732 14.7576C9.51881 14.7576 11.1389 17.167 11.1389 20.1289C11.1389 23.0907 9.51881 25.5001 7.52732 25.5001ZM7.15286 23.4286C5.82267 23.4286 6.7362 18.9715 6.7362 20.9499C6.7362 22.9282 6.656 16.6121 7.9862 16.6121C9.31639 16.6121 8.81953 21.6888 8.81953 19.7105C8.81953 17.7322 8.48306 23.4286 7.15286 23.4286Z" fill="white"/>
<path d="M4.51589 21.0226H0.669245C0.337796 21.0226 0.069519 20.6234 0.069519 20.1301C0.069519 19.6368 0.337796 19.2375 0.669245 19.2375H4.51589C4.84733 19.2375 5.11561 19.6368 5.11561 20.1301C5.11561 20.6234 4.84694 21.0226 4.51589 21.0226Z" fill="white"/>
<path d="M22.8023 6.76358L0.669245 6.76358C0.337796 6.76358 0.069519 6.36432 0.069519 5.87105C0.069519 5.37778 0.337796 4.97852 0.669245 4.97852L22.8023 4.97852C23.1334 4.97852 23.4021 5.37778 23.4021 5.87105C23.4021 6.36432 23.1334 6.76358 22.8023 6.76358Z" fill="white"/>
<path d="M25.8137 11.2417C23.8226 11.2417 22.2026 8.8323 22.2026 5.87045C22.2026 2.9086 23.8226 0.499756 25.8137 0.499756C27.8048 0.499756 29.4253 2.90919 29.4253 5.87104C29.4253 8.83289 27.8052 11.2417 25.8137 11.2417ZM25.9028 7.31633C24.573 7.31633 26.3195 3.89271 26.3195 5.87104C26.3195 7.84938 24.573 5.87045 25.9028 5.87045C27.233 5.87045 25.4862 6.81591 25.4862 4.83758C25.4862 2.85924 27.233 7.31633 25.9028 7.31633Z" fill="white"/>
<path d="M34.4702 6.76358L28.8256 6.76358C28.4946 6.76358 28.2259 6.36432 28.2259 5.87105C28.2259 5.37778 28.4946 4.97852 28.8256 4.97852L34.4698 4.97852C34.8009 4.97852 35.0696 5.37778 35.0696 5.87105C35.0696 6.36432 34.8013 6.76358 34.4702 6.76358Z" fill="white"/>
</svg>
