<svg width="50" height="50" viewBox="0 0 50 50" fill="none" xmlns="http://www.w3.org/2000/svg">
<path d="M4.58331 19.5834C4.58331 22.2917 4.99998 26.4584 8.74998 30.2084C12.0833 33.5417 23.125 41.0417 23.5416 41.4584C23.9583 41.6667 24.375 41.875 24.7916 41.875C25.2083 41.875 25.625 41.6667 26.0416 41.4584C26.4583 41.0417 37.5 33.75 40.8333 30.2084C44.5833 26.4584 45 22.2917 45 19.5834C45 13.3334 40 8.33337 33.75 8.33337C30.4166 8.33337 27.0833 10.2084 25 13.125C22.9166 10.2084 19.5833 8.33337 15.8333 8.33337C9.79165 8.33337 4.58331 13.3334 4.58331 19.5834Z" fill="white"/>
</svg>
