<svg width="50" height="50" viewBox="0 0 50 50" fill="none" xmlns="http://www.w3.org/2000/svg">
<path fill-rule="evenodd" clip-rule="evenodd" d="M5.24829 16.2973C4.16663 18.2735 4.16663 20.6572 4.16663 25.4248V28.5937C4.16663 36.7204 4.16663 40.7839 6.6074 43.3085C9.04819 45.8333 12.9765 45.8333 20.8333 45.8333H29.1666C37.0233 45.8333 40.9518 45.8333 43.3925 43.3085C45.8333 40.7839 45.8333 36.7204 45.8333 28.5937V25.4248C45.8333 20.6572 45.8333 18.2735 44.7516 16.2973C43.67 14.3212 41.6939 13.0948 37.7416 10.6419L33.575 8.05594C29.397 5.46306 27.3081 4.16663 25 4.16663C22.6918 4.16663 20.6029 5.46306 16.425 8.05594L12.2584 10.6419C8.3061 13.0948 6.32996 14.3212 5.24829 16.2973ZM23.4375 37.5C23.4375 38.3629 24.137 39.0625 25 39.0625C25.8629 39.0625 26.5625 38.3629 26.5625 37.5V31.25C26.5625 30.387 25.8629 29.6875 25 29.6875C24.137 29.6875 23.4375 30.387 23.4375 31.25V37.5Z" fill="white"/>
</svg>
