<svg width="50" height="50" viewBox="0 0 50 50" fill="none" xmlns="http://www.w3.org/2000/svg">
<path fill-rule="evenodd" clip-rule="evenodd" d="M43.7266 32.8359V10.9609C43.7266 9.71719 43.2328 8.525 42.3531 7.64688C41.475 6.76719 40.2828 6.27344 39.0391 6.27344C33.6281 6.27344 22.575 6.27344 17.1641 6.27344C16.3016 6.27344 15.6016 6.97344 15.6016 7.83594C15.6016 8.69844 16.3016 9.39844 17.1641 9.39844H39.0391C39.4531 9.39844 39.85 9.5625 40.1437 9.85625C40.4375 10.15 40.6016 10.5469 40.6016 10.9609V32.8359C40.6016 33.6984 41.3016 34.3984 42.1641 34.3984C43.0266 34.3984 43.7266 33.6984 43.7266 32.8359Z" fill="white"/>
<path fill-rule="evenodd" clip-rule="evenodd" d="M37.5 17.1875C37.5 15.9437 37.0063 14.7516 36.1266 13.8734C35.2484 12.9937 34.0562 12.5 32.8125 12.5C27.4016 12.5 16.3484 12.5 10.9375 12.5C9.69375 12.5 8.50156 12.9937 7.62344 13.8734C6.74375 14.7516 6.25 15.9437 6.25 17.1875C6.25 22.5984 6.25 33.6516 6.25 39.0625C6.25 40.3062 6.74375 41.4984 7.62344 42.3766C8.50156 43.2563 9.69375 43.75 10.9375 43.75C16.3484 43.75 27.4016 43.75 32.8125 43.75C34.0562 43.75 35.2484 43.2563 36.1266 42.3766C37.0063 41.4984 37.5 40.3062 37.5 39.0625V17.1875ZM15.6172 31.2547H15.6141C13.8875 31.2547 12.4859 32.6562 12.4859 34.3828C12.4859 36.1094 13.8875 37.5109 15.6141 37.5109C17.3406 37.5109 18.7422 36.1094 18.7422 34.3828V23.2547L28.1187 22.0828L28.1219 28.125C26.3969 28.125 24.9953 29.5266 24.9953 31.2531C24.9953 32.9797 26.3969 34.3797 28.1219 34.3797C29.8484 34.3797 31.25 32.9797 31.25 31.2531L31.2422 20.3109C31.2422 19.8641 31.0484 19.4375 30.7125 19.1406C30.3766 18.8438 29.9297 18.7063 29.4859 18.7625L16.9859 20.325C16.2031 20.4219 15.6172 21.0875 15.6172 21.875V31.2547Z" fill="white"/>
</svg>
