<svg width="50" height="50" viewBox="0 0 50 50" fill="none" xmlns="http://www.w3.org/2000/svg">
<path d="M6.25 12.5C6.25 12.0856 6.41462 11.6882 6.70765 11.3951C7.00067 11.1021 7.3981 10.9375 7.8125 10.9375H42.1875C42.6019 10.9375 42.9993 11.1021 43.2924 11.3951C43.5854 11.6882 43.75 12.0856 43.75 12.5C43.75 12.9144 43.5854 13.3118 43.2924 13.6049C42.9993 13.8979 42.6019 14.0625 42.1875 14.0625H7.8125C7.3981 14.0625 7.00067 13.8979 6.70765 13.6049C6.41462 13.3118 6.25 12.9144 6.25 12.5ZM7.8125 26.5625H31.25C31.6644 26.5625 32.0618 26.3979 32.3549 26.1049C32.6479 25.8118 32.8125 25.4144 32.8125 25C32.8125 24.5856 32.6479 24.1882 32.3549 23.8951C32.0618 23.6021 31.6644 23.4375 31.25 23.4375H7.8125C7.3981 23.4375 7.00067 23.6021 6.70765 23.8951C6.41462 24.1882 6.25 24.5856 6.25 25C6.25 25.4144 6.41462 25.8118 6.70765 26.1049C7.00067 26.3979 7.3981 26.5625 7.8125 26.5625ZM21.875 35.9375H7.8125C7.3981 35.9375 7.00067 36.1021 6.70765 36.3951C6.41462 36.6882 6.25 37.0856 6.25 37.5C6.25 37.9144 6.41462 38.3118 6.70765 38.6049C7.00067 38.8979 7.3981 39.0625 7.8125 39.0625H21.875C22.2894 39.0625 22.6868 38.8979 22.9799 38.6049C23.2729 38.3118 23.4375 37.9144 23.4375 37.5C23.4375 37.0856 23.2729 36.6882 22.9799 36.3951C22.6868 36.1021 22.2894 35.9375 21.875 35.9375ZM47.3242 22.7227L39.5117 20.3789C39.2784 20.3089 39.032 20.2944 38.7921 20.3365C38.5522 20.3787 38.3255 20.4763 38.1301 20.6217C37.9346 20.767 37.7759 20.956 37.6665 21.1736C37.5571 21.3913 37.5001 21.6314 37.5 21.875V32.0918C36.3083 31.4038 34.9229 31.1283 33.5587 31.308C32.1944 31.4877 30.9276 32.1127 29.9548 33.0858C28.982 34.059 28.3575 35.326 28.1783 36.6903C27.999 38.0546 28.275 39.44 28.9635 40.6314C29.6519 41.8228 30.7143 42.7538 31.9858 43.2798C33.2573 43.8058 34.6669 43.8975 35.9959 43.5406C37.3248 43.1838 38.4988 42.3983 39.3358 41.3061C40.1728 40.2139 40.626 38.876 40.625 37.5V23.9746L46.4258 25.7148C46.6238 25.7793 46.8327 25.8036 47.0402 25.7862C47.2477 25.7688 47.4496 25.7101 47.6342 25.6136C47.8187 25.517 47.982 25.3846 48.1146 25.224C48.2472 25.0634 48.3463 24.8779 48.4062 24.6785C48.4661 24.4791 48.4855 24.2697 48.4633 24.0626C48.4411 23.8556 48.3777 23.655 48.2769 23.4728C48.1761 23.2906 48.0399 23.1304 47.8763 23.0015C47.7127 22.8727 47.525 22.7779 47.3242 22.7227Z" fill="white"/>
</svg>
