<svg width="50" height="50" viewBox="0 0 50 50" fill="none" xmlns="http://www.w3.org/2000/svg">
<path d="M25 28.125C23.9184 28.125 22.861 27.8043 21.9617 27.2033C21.0624 26.6024 20.3614 25.7483 19.9475 24.7491C19.5336 23.7498 19.4253 22.6502 19.6363 21.5893C19.8473 20.5285 20.3682 19.5541 21.133 18.7893C21.8978 18.0244 22.8722 17.5036 23.9331 17.2926C24.9939 17.0816 26.0935 17.1899 27.0928 17.6038C28.0921 18.0177 28.9462 18.7186 29.5471 19.618C30.148 20.5173 30.4687 21.5746 30.4687 22.6562C30.4687 24.1067 29.8926 25.4977 28.867 26.5232C27.8414 27.5488 26.4504 28.125 25 28.125ZM28.0762 28.125H21.9238C21.3208 28.1234 20.7254 28.2603 20.1836 28.5251C19.6418 28.7899 19.1681 29.1756 18.7988 29.6523C18.4343 30.1164 18.1817 30.6582 18.0604 31.2357C17.9392 31.8133 17.9526 32.4109 18.0996 32.9824L20.4785 42.3574C20.6973 43.2051 21.1921 43.9558 21.885 44.4909C22.5779 45.026 23.4292 45.3151 24.3047 45.3125H25.6953C26.5724 45.3173 27.426 45.0292 28.1209 44.4939C28.8157 43.9586 29.3121 43.2067 29.5312 42.3574L31.9101 32.9824C32.0572 32.4109 32.0706 31.8133 31.9493 31.2357C31.8281 30.6582 31.5754 30.1164 31.2109 29.6523C30.8407 29.1742 30.3653 28.7878 29.8217 28.5229C29.2781 28.2581 28.6808 28.1219 28.0762 28.125ZM35.5937 27.7344C35.4905 28.1356 35.5508 28.5613 35.7614 28.918C35.972 29.2748 36.3157 29.5333 36.7168 29.6367C36.8445 29.6692 36.9757 29.6856 37.1074 29.6855C37.4536 29.6853 37.7899 29.5701 38.0635 29.358C38.3372 29.1458 38.5326 28.8489 38.6191 28.5137C39.1535 26.4362 39.2056 24.264 38.7713 22.1633C38.337 20.0626 37.4278 18.0891 36.1135 16.3939C34.7991 14.6986 33.1143 13.3265 31.188 12.3826C29.2618 11.4386 27.1451 10.9479 25 10.9479C22.8549 10.9479 20.7382 11.4386 18.8119 12.3826C16.8857 13.3265 15.2009 14.6986 13.8865 16.3939C12.5721 18.0891 11.663 20.0626 11.2287 22.1633C10.7944 24.264 10.8465 26.4362 11.3808 28.5137C11.4296 28.7151 11.5179 28.9047 11.6406 29.0717C11.7633 29.2386 11.918 29.3795 12.0957 29.4861C12.2734 29.5927 12.4705 29.6629 12.6756 29.6926C12.8806 29.7223 13.0896 29.7109 13.2902 29.6591C13.4908 29.6073 13.6791 29.5161 13.8442 29.3908C14.0092 29.2655 14.1477 29.1087 14.2516 28.9294C14.3554 28.7501 14.4226 28.5519 14.4491 28.3464C14.4757 28.1409 14.4611 27.9322 14.4062 27.7324C13.9913 26.1168 13.9515 24.4277 14.2897 22.7943C14.6279 21.1609 15.3352 19.6265 16.3575 18.3084C17.3798 16.9904 18.6901 15.9236 20.188 15.1898C21.686 14.4559 23.3319 14.0744 25 14.0744C26.668 14.0744 28.314 14.4559 29.8119 15.1898C31.3099 15.9236 32.6201 16.9904 33.6425 18.3084C34.6648 19.6265 35.3721 21.1609 35.7103 22.7943C36.0485 24.4277 36.0086 26.1168 35.5937 27.7324V27.7344ZM25 4.6875C20.6364 4.68701 16.3887 6.09172 12.8857 8.69365C9.38272 11.2956 6.81075 14.9564 5.55062 19.1341C4.29048 23.3117 4.40916 27.7841 5.88909 31.8891C7.36903 35.994 10.1315 39.5133 13.7676 41.9258C14.1126 42.1552 14.5346 42.2382 14.9408 42.1565C15.3469 42.0748 15.7041 41.8352 15.9336 41.4902C16.0471 41.3193 16.1258 41.1277 16.1652 40.9263C16.2047 40.7249 16.2041 40.5177 16.1634 40.3166C16.1228 40.1155 16.043 39.9243 15.9285 39.754C15.814 39.5838 15.667 39.4377 15.4961 39.3242C12.4197 37.2829 10.0824 34.3052 8.83021 30.832C7.57803 27.3588 7.47754 23.5747 8.54361 20.0399C9.60968 16.5051 11.7856 13.4076 14.7493 11.2058C17.7131 9.00412 21.307 7.81525 24.999 7.81525C28.691 7.81525 32.285 9.00412 35.2487 11.2058C38.2124 13.4076 40.3883 16.5051 41.4544 20.0399C42.5205 23.5747 42.42 27.3588 41.1678 30.832C39.9156 34.3052 37.5783 37.2829 34.5019 39.3242C34.1648 39.557 33.9327 39.9129 33.8554 40.3153C33.7782 40.7176 33.862 41.1342 34.0889 41.4753C34.3158 41.8164 34.6676 42.0547 35.0685 42.139C35.4694 42.2232 35.8874 42.1467 36.2324 41.9258C39.8684 39.5133 42.6309 35.994 44.1109 31.8891C45.5908 27.7841 45.7095 23.3117 44.4494 19.1341C43.1892 14.9564 40.6173 11.2956 37.1143 8.69365C33.6113 6.09172 29.3636 4.68701 25 4.6875Z" fill="white"/>
</svg>
