<svg width="50" height="50" viewBox="0 0 50 50" fill="none" xmlns="http://www.w3.org/2000/svg">
<path d="M9.375 9.375C7.65156 9.375 6.25 10.7766 6.25 12.5V18.75H9.375V12.5H40.625V37.5H28.125V40.625H40.625C42.3484 40.625 43.75 39.2234 43.75 37.5V12.5C43.75 10.7766 42.3484 9.375 40.625 9.375H9.375ZM6.25 21.875V25C14.3271 25 20.994 31.1598 21.7957 39.0289C21.8491 39.5535 21.875 40.0865 21.875 40.625H25C25 30.2859 16.5891 21.875 6.25 21.875ZM6.25 28.125V31.25C11.4203 31.25 15.625 35.4547 15.625 40.625H18.75C18.75 33.7328 13.1422 28.125 6.25 28.125ZM6.25 34.375V40.625H12.5C12.5 37.1734 9.70156 34.375 6.25 34.375Z" fill="white"/>
</svg>
