<svg width="50" height="50" viewBox="0 0 50 50" fill="none" xmlns="http://www.w3.org/2000/svg">
<g clip-path="url(#clip0_98_46)" filter="url(#filter0_d_98_46)">
<path d="M34.8226 27.153C37.3644 23.6846 38.5028 19.3843 38.0101 15.1125C37.5175 10.8408 35.43 6.91253 32.1655 4.11374C28.9009 1.31494 24.6999 -0.148021 20.403 0.017546C16.1061 0.183113 12.0302 1.965 8.99066 5.0067C5.95113 8.04841 4.17216 12.1256 4.00967 16.4226C3.84718 20.7196 5.31314 24.9196 8.11428 28.1821C10.9154 31.4447 14.8451 33.5293 19.1173 34.0189C23.3894 34.5085 27.6888 33.367 31.1555 30.8228H31.1528C31.2298 30.9278 31.3156 31.0284 31.4101 31.1246L41.5163 41.2309C42.0085 41.7234 42.6763 42.0003 43.3726 42.0005C44.0689 42.0008 44.7368 41.7244 45.2294 41.2322C45.7219 40.74 45.9988 40.0723 45.9991 39.3759C45.9993 38.6796 45.7229 38.0117 45.2307 37.5191L35.1245 27.4129C35.0307 27.3178 34.9297 27.2327 34.8226 27.153ZM35.4998 17.0625C35.4998 18.9585 35.1264 20.8359 34.4008 22.5875C33.6753 24.3391 32.6118 25.9307 31.2712 27.2714C29.9305 28.612 28.339 29.6755 26.5873 30.401C24.8357 31.1266 22.9583 31.5 21.0623 31.5C19.1664 31.5 17.289 31.1266 15.5373 30.401C13.7857 29.6755 12.1941 28.612 10.8535 27.2714C9.51283 25.9307 8.44937 24.3391 7.72382 22.5875C6.99827 20.8359 6.62483 18.9585 6.62483 17.0625C6.62483 13.2335 8.14592 9.56122 10.8535 6.85367C13.561 4.14611 17.2333 2.62502 21.0623 2.62502C24.8914 2.62502 28.5636 4.14611 31.2712 6.85367C33.9787 9.56122 35.4998 13.2335 35.4998 17.0625Z" fill="white"/>
</g>
<defs>
<filter id="filter0_d_98_46" x="0" y="0" width="50" height="50" filterUnits="userSpaceOnUse" color-interpolation-filters="sRGB">
<feFlood flood-opacity="0" result="BackgroundImageFix"/>
<feColorMatrix in="SourceAlpha" type="matrix" values="0 0 0 0 0 0 0 0 0 0 0 0 0 0 0 0 0 0 127 0" result="hardAlpha"/>
<feOffset dy="4"/>
<feGaussianBlur stdDeviation="2"/>
<feComposite in2="hardAlpha" operator="out"/>
<feColorMatrix type="matrix" values="0 0 0 0 0 0 0 0 0 0 0 0 0 0 0 0 0 0 0.25 0"/>
<feBlend mode="normal" in2="BackgroundImageFix" result="effect1_dropShadow_98_46"/>
<feBlend mode="normal" in="SourceGraphic" in2="effect1_dropShadow_98_46" result="shape"/>
</filter>
<clipPath id="clip0_98_46">
<rect width="42" height="42" fill="white" transform="translate(4)"/>
</clipPath>
</defs>
</svg>
