<svg width="50" height="50" viewBox="0 0 50 50" fill="none" xmlns="http://www.w3.org/2000/svg">
<path d="M11.1127 9.4686C13.2279 7.57581 15.7322 6.10879 18.4907 5.20227C20.0179 7.11004 22.3663 8.33187 25 8.33187C27.6338 8.33187 29.9821 7.11004 31.5094 5.20227C34.2679 6.10879 36.7721 7.57581 38.8873 9.4686C38.0011 11.7438 38.1179 14.3861 39.4338 16.6652C40.7504 18.9456 42.9821 20.3684 45.3971 20.7374C45.6831 22.113 45.8334 23.5382 45.8334 24.9986C45.8334 26.4588 45.6831 27.8842 45.3971 29.2596C42.9821 29.6288 40.7504 31.0515 39.4338 33.3319C38.1179 35.6109 38.0011 38.2534 38.8873 40.5284C36.7721 42.4213 34.2679 43.8884 31.5094 44.7948C29.9821 42.8871 27.6338 41.6652 25 41.6652C22.3663 41.6652 20.0179 42.8871 18.4907 44.7948C15.7322 43.8884 13.2279 42.4213 11.1127 40.5284C11.999 38.2534 11.8821 35.6109 10.5663 33.3319C9.24967 31.0515 7.01798 29.6288 4.60283 29.2596C4.31694 27.8842 4.16669 26.4588 4.16669 24.9986C4.16669 23.5382 4.31694 22.113 4.60283 20.7374C7.01798 20.3684 9.24967 18.9456 10.5663 16.6652C11.8821 14.3861 11.999 11.7438 11.1127 9.4686ZM28.125 30.4113C31.1144 28.6852 32.1386 24.863 30.4127 21.8736C28.6867 18.8842 24.8644 17.86 21.875 19.5859C18.8857 21.3117 17.8615 25.1342 19.5874 28.1236C21.3134 31.113 25.1356 32.1371 28.125 30.4113Z" fill="white"/>
</svg>
