<svg width="50" height="50" viewBox="0 0 50 50" fill="none" xmlns="http://www.w3.org/2000/svg">
<path d="M38.4082 21.6895L38.3887 22.7051C38.3105 23.8477 37.6172 26.9434 36.2305 28.0469C36.9141 26.5625 37.9199 23.4375 37.2266 19.9707C35.3125 10.4492 28.0762 6.40625 18.8477 4.88281L17.168 4.66797C21.0254 9.27734 22.6465 12.6465 22.0215 16.0742C21.7969 17.3047 21.0449 18.3594 20.6543 19.1602C20.6543 19.1602 20.8887 17.9004 20.8496 16.3574C20.8203 14.9707 20.2051 13.3301 19.0918 12.4902C19.4336 14.2871 19.0137 15.7617 18.2031 17.1484C15.791 21.2695 9.86328 22.793 9.375 30.4102V30.7813C9.375 36.0254 11.875 40.4492 16.084 42.9883C15.4199 41.7871 14.9121 39.5508 15.5273 37.1094C15.918 39.4238 16.8945 40.625 17.959 42.168C18.7598 43.3105 19.8242 44.0527 21.1914 44.5996C22.5586 45.1465 24.2187 45.3027 25.8691 45.3027C31.3184 45.3027 34.7949 43.5352 37.5 40.3711C40.2051 37.207 40.6348 33.7305 40.6348 29.9805C40.6348 26.2305 39.8047 24.0332 38.4082 21.6895Z" fill="white"/>
</svg>
